<svg xmlns="http://www.w3.org/2000/svg" width="512" height="512" viewBox="0 0 512 512" version="1.1">
	<path d="M 238.136 17.058 C 177.118 22.803, 112.269 56.102, 74.876 100.890 C 42.607 139.543, 22.320 191.979, 19.416 244.245 C 18.543 259.972, 19.716 262.952, 26.795 262.985 C 28.896 262.994, 30.906 262.184, 32.338 260.750 C 34.313 258.773, 34.733 256.772, 35.805 244.253 C 38.610 211.466, 46.027 183.583, 59.415 155.500 C 79.609 113.139, 111.483 81.238, 155.774 59.060 C 186.510 43.671, 212.925 36.100, 243.866 33.814 C 263.169 32.388, 265 31.588, 265 24.582 C 265 16.501, 259.730 15.025, 238.136 17.058 M 241.417 48.062 C 178.712 52.895, 122.290 85.202, 88.908 135.387 C 72.202 160.502, 62.238 186.480, 57.414 217.500 C 55.063 232.618, 55.057 266.307, 57.401 281.500 C 64.094 324.865, 81.698 360.285, 112.954 393.277 C 157.993 440.819, 229.697 461.811, 299.500 447.890 C 319.834 443.835, 347.879 432.850, 365.500 422.038 C 396.079 403.276, 420.964 373.220, 438.807 333.500 C 451.727 304.738, 457.015 280.406, 456.980 249.872 C 456.941 214.689, 450.433 186.053, 435.533 155.500 C 419.450 122.521, 396.921 97.918, 364.364 77.779 C 335.452 59.895, 306.662 50.720, 271 48.025 C 256.352 46.918, 256.254 46.918, 241.417 48.062 M 237 63.628 C 211.459 66.759, 183.495 76.127, 160.624 89.215 C 134.304 104.277, 110.798 128.013, 94.849 155.634 C 83.392 175.476, 74.910 200.973, 71.954 224.461 C 70.203 238.372, 71.215 269.436, 73.878 283.500 C 77.156 300.811, 83.044 320.094, 88.154 330.250 C 92.139 338.171, 92.356 336.002, 91.689 294.884 C 91.273 269.279, 91.402 255.117, 92.062 253.884 C 92.863 252.387, 94.207 252, 98.601 252 C 108.438 252, 108.166 252.587, 107.906 231.886 C 107.687 214.475, 107.747 213.865, 109.840 212.400 C 111.904 210.954, 112 210.158, 112 194.482 L 112 178.077 116 177 L 120 175.923 120 166.084 C 120 155.234, 120.926 153.263, 125.487 154.407 C 127.948 155.025, 128 155.232, 128 164.448 C 128 174.702, 129.013 177, 133.536 177 C 134.879 177, 136.384 177.849, 136.965 178.934 C 137.547 180.022, 138 187.461, 138 195.934 C 138 209.610, 138.161 211.001, 139.750 211.015 C 144.306 211.055, 144.500 211.903, 144.500 231.720 L 144.500 250.500 148.991 251 C 152.509 251.392, 153.547 251.934, 153.780 253.500 C 154.633 259.229, 155.070 260, 157.459 260 C 159.534 260, 159.924 259.465, 160.190 256.250 L 160.500 252.500 189.379 252.234 C 217.478 251.976, 221 252.290, 221 255.051 C 221 255.494, 220.293 256.564, 219.429 257.429 C 218.136 258.721, 215.128 259, 202.500 259 C 189.642 259, 186.878 259.265, 185.514 260.629 C 184.618 261.525, 184.136 262.912, 184.442 263.711 C 184.749 264.510, 185 265.577, 185 266.082 C 185 266.605, 192.845 267.007, 203.250 267.015 C 213.287 267.024, 222.114 267.420, 222.865 267.895 C 223.993 268.610, 224.201 277.772, 224.064 320.719 L 223.897 372.677 310.908 372.423 C 358.764 372.283, 398.387 371.879, 398.959 371.525 C 399.532 371.171, 400 370.466, 400 369.958 C 400 369.403, 367.270 368.928, 317.919 368.767 C 237.418 368.505, 235.810 368.462, 234.390 366.519 C 231.262 362.241, 232.685 361.535, 245.511 361 L 257.500 360.500 257.771 340.774 C 258.028 322.040, 258.145 320.993, 260.097 319.948 C 261.441 319.229, 269.816 318.904, 284.326 319.009 C 296.522 319.097, 307.063 319.131, 307.750 319.084 C 308.650 319.024, 309 316.505, 309 310.082 C 309 305.177, 308.727 300.452, 308.393 299.582 C 307.856 298.182, 303.828 298, 273.348 298 L 238.909 298 236.455 295.545 L 234 293.091 234 255.745 C 234 228.032, 234.310 218.090, 235.200 217.200 C 236.115 216.285, 257.565 216, 325.643 216 L 414.887 216 416.443 218.223 C 418.372 220.976, 418.522 241.075, 416.944 285.500 C 416.358 302, 416.018 321.573, 416.189 328.996 L 416.500 342.492 420.132 335.496 C 428.116 320.118, 435.267 298.227, 439.077 277.500 C 449.722 219.585, 427.403 150.866, 385.992 114.063 C 358.084 89.260, 325.828 72.847, 291.445 65.953 C 282.825 64.225, 276.252 63.699, 260.500 63.479 C 249.500 63.325, 238.925 63.392, 237 63.628 M 414.500 85.155 C 408.747 88.301, 408.542 93.062, 413.898 99.147 C 416.042 101.582, 419.337 104.405, 421.220 105.419 C 424.516 107.194, 424.784 107.196, 428.397 105.482 C 432.810 103.388, 435.413 99.877, 434.556 97.175 C 434.220 96.118, 431.291 92.720, 428.047 89.626 C 421.914 83.776, 418.862 82.769, 414.500 85.155 M 437.763 111.565 C 434.179 113.510, 433.395 116.926, 435.566 121.142 C 438.739 127.307, 446.997 138.928, 448.945 139.970 C 453.839 142.590, 460.011 139.371, 459.988 134.211 C 459.966 129.284, 449.800 114.023, 444.800 111.411 C 441.511 109.693, 441.201 109.700, 437.763 111.565 M 164.014 120.752 C 158.104 123.716, 158.031 124.200, 158.018 160.500 C 158.008 191.732, 158.114 193.675, 160.004 196.775 C 161.102 198.576, 163.175 200.496, 164.611 201.042 C 166.281 201.677, 196.346 201.938, 248.088 201.767 L 328.955 201.500 331.728 198.727 L 334.500 195.955 334.500 160.395 L 334.500 124.836 331.234 121.918 L 327.968 119 247.734 119.002 C 173.346 119.003, 167.246 119.130, 164.014 120.752 M 347.412 134.497 L 344.915 136.994 345.207 166.587 L 345.500 196.179 347.861 198.090 C 350.010 199.829, 352.028 200, 370.422 200 C 389.369 200, 390.759 199.873, 392.811 197.961 C 394.949 195.970, 395.005 195.289, 395.200 168.711 C 395.449 134.685, 395.528 136.241, 393.440 133.934 C 391.816 132.140, 390.183 132, 370.800 132 L 349.909 132 347.412 134.497 M 205.259 140.744 C 197.323 141.068, 196.994 141.178, 196.362 143.695 C 194.847 149.730, 192.737 149.500, 249.609 149.500 L 301.500 149.500 301.825 146.662 C 302.017 144.983, 301.443 143.042, 300.420 141.912 C 298.763 140.080, 296.903 140.009, 256.095 140.204 C 232.668 140.315, 209.792 140.559, 205.259 140.744 M 377.223 141.557 C 375.458 142.793, 375.003 144.080, 375.015 147.807 C 375.035 153.900, 376.087 155.400, 380.339 155.400 C 385.272 155.400, 387 153.578, 387 148.378 C 387 141.307, 382.280 138.014, 377.223 141.557 M 464 156.709 C 458.193 158.845, 457.695 163.325, 461.976 174.935 C 467.367 189.556, 469.065 191.253, 475.577 188.532 C 481.691 185.978, 481.731 183.058, 475.870 167.152 C 472.514 158.046, 468.933 154.895, 464 156.709 M 303.864 158.072 C 294.583 159.435, 252.275 160.993, 224.450 160.997 C 205.526 160.999, 198.072 161.328, 197.200 162.200 C 195.614 163.786, 195.665 168.477, 197.284 169.821 C 198.827 171.102, 327.380 171.952, 328.643 170.689 C 330.442 168.892, 329.477 162.137, 327.053 159.556 C 324.862 157.224, 323.988 157.011, 317.076 157.122 C 312.909 157.189, 306.964 157.616, 303.864 158.072 M 377.280 161.020 C 374.763 162.033, 373.483 165.803, 374.407 169.485 C 375.141 172.412, 379.013 173.731, 382.890 172.375 C 385.095 171.604, 385.549 170.774, 385.818 167.018 C 386.261 160.822, 383.169 158.650, 377.280 161.020 M 357.238 164.162 C 354.179 167.221, 357.345 173.534, 360.834 171.333 C 361.855 170.689, 362.500 168.968, 362.500 166.891 C 362.500 164.256, 362.052 163.436, 360.488 163.212 C 359.382 163.053, 357.919 163.481, 357.238 164.162 M 377 180.288 C 375.109 181.240, 374.423 182.470, 374.185 185.343 C 373.792 190.098, 375.321 192, 379.541 192 C 384.543 192, 385.886 191.123, 386.585 187.399 C 387.829 180.770, 383.065 177.235, 377 180.288 M 357.605 182.299 C 355.385 183.923, 355.777 188.846, 358.250 190.394 C 362.226 192.883, 365.934 186.077, 362.483 182.626 C 360.518 180.661, 359.902 180.620, 357.605 182.299 M 197.250 183.104 C 195.823 184.583, 195.634 187.875, 196.865 189.815 C 197.954 191.534, 288.925 192.646, 292.039 190.979 C 294.103 189.875, 294.598 186.494, 293.055 184.055 C 291.759 182.006, 199.196 181.087, 197.250 183.104 M 125.068 199.874 C 123.893 202.068, 123.658 206.945, 124.607 209.418 C 124.970 210.364, 126.396 211, 128.155 211 L 131.095 211 130.798 204.750 C 130.533 199.197, 130.257 198.465, 128.318 198.189 C 126.940 197.993, 125.742 198.614, 125.068 199.874 M 475 200.288 C 471.832 201.882, 471.369 206.133, 473.016 218.500 C 474.526 229.830, 476.084 233.732, 479.434 234.573 C 483.297 235.542, 486.932 234.244, 488.210 231.438 C 489.576 228.440, 487.707 209.628, 485.523 204.402 C 483.422 199.372, 479.706 197.919, 475 200.288 M 128.246 220.154 C 126.543 221.857, 126.671 228.482, 128.435 229.946 C 129.224 230.601, 131.361 230.993, 133.185 230.818 C 136.498 230.500, 136.500 230.497, 136.500 225 L 136.500 219.500 132.996 219.204 C 131.068 219.042, 128.931 219.469, 128.246 220.154 M 359.750 225.689 C 358.257 226.080, 358 227.392, 358 234.634 L 358 243.121 361.750 242.810 L 365.500 242.500 365.795 234.587 C 366.139 225.349, 365.372 224.220, 359.750 225.689 M 378.302 225.678 C 376.572 226.030, 375.962 227.070, 375.439 230.556 C 375.074 232.993, 375.071 236.565, 375.433 238.493 C 376.081 241.946, 376.167 242, 381.086 242 L 386.081 242 385.790 233.750 C 385.508 225.736, 385.429 225.496, 383 225.366 C 381.625 225.292, 379.511 225.432, 378.302 225.678 M 398.250 225.706 C 396.327 226.076, 395.978 226.819, 395.849 230.820 C 395.665 236.545, 396.019 241.330, 396.676 242 C 396.946 242.275, 399.171 242.500, 401.620 242.500 C 407.095 242.500, 407.964 241.315, 407.985 233.821 C 408.006 225.823, 406.061 224.201, 398.250 225.706 M 245.714 226.619 C 245.321 227.012, 245 230.858, 245 235.167 L 245 243 249.439 243 L 253.877 243 254.576 238.341 C 254.960 235.778, 254.876 232.066, 254.387 230.091 C 253.600 226.904, 253.103 226.467, 249.964 226.202 C 248.020 226.039, 246.107 226.226, 245.714 226.619 M 286.250 226.662 C 285.398 227.006, 285 229.686, 285 235.083 L 285 243 288.500 243 L 292 243 292 234.500 C 292 226.328, 291.913 226.003, 289.750 226.079 C 288.512 226.122, 286.938 226.385, 286.250 226.662 M 299.667 226.667 C 299.300 227.033, 299 230.858, 299 235.167 L 299 243 302.375 243 C 305.355 243, 305.823 242.634, 306.375 239.875 C 307.158 235.962, 307.155 231.182, 306.370 228.250 C 305.932 226.617, 305.022 226, 303.050 226 C 301.556 226, 300.033 226.300, 299.667 226.667 M 318 226.880 L 313.500 227.500 313.500 235.500 L 313.500 243.500 318.947 243.809 C 328.777 244.367, 329 244.171, 329 234.981 C 329 229.270, 328.644 226.996, 327.750 226.986 C 327.063 226.979, 325.600 226.812, 324.500 226.617 C 323.400 226.421, 320.475 226.539, 318 226.880 M 338.125 226.876 C 337.264 227.437, 336.559 230.428, 336.242 234.861 C 335.746 241.793, 335.793 241.971, 338.367 242.949 C 339.815 243.500, 342.305 243.689, 343.902 243.370 C 346.420 242.866, 346.877 242.241, 347.356 238.645 C 347.659 236.365, 347.585 232.700, 347.192 230.500 C 346.532 226.806, 346.210 226.480, 342.988 226.239 C 341.070 226.095, 338.881 226.382, 338.125 226.876 M 261.484 232.280 C 261.121 235.183, 260.977 238.896, 261.162 240.530 C 261.499 243.495, 261.513 243.501, 268.912 243.797 C 277.509 244.142, 277.969 243.771, 277.971 236.500 C 277.974 227.211, 277.785 227, 269.455 227 L 262.144 227 261.484 232.280 M 128.035 238.934 C 126.625 241.569, 126.727 248.327, 128.200 249.800 C 128.860 250.460, 130.570 251, 132 251 C 135.471 251, 137 249.277, 137 245.365 C 137 239.677, 135.419 237, 132.060 237 C 130.128 237, 128.704 237.684, 128.035 238.934 M 245.667 248.667 C 245.300 249.033, 245 253.083, 245 257.667 L 245 266 249.383 266 C 254.310 266, 254.961 264.990, 254.986 257.315 C 255.009 250.462, 253.609 248, 249.691 248 C 247.844 248, 246.033 248.300, 245.667 248.667 M 263.385 248.741 C 261.943 249.723, 260.658 260.166, 261.505 264.022 L 262.159 267 269.617 267 L 277.075 267 276.788 257.750 L 276.500 248.500 270.500 248.241 C 267.200 248.099, 263.998 248.324, 263.385 248.741 M 285.713 248.621 C 285.321 249.013, 285 253.083, 285 257.667 L 285 266 288.539 266 L 292.078 266 291.789 257.250 C 291.507 248.715, 291.438 248.493, 288.963 248.204 C 287.567 248.041, 286.104 248.229, 285.713 248.621 M 301.250 249.099 C 299.236 249.848, 299 250.611, 299 256.386 C 299 264.648, 299.562 266, 302.993 266 C 305.528 266, 305.833 265.597, 306.460 261.417 C 307.272 256.003, 306.336 249.341, 304.675 248.710 C 304.029 248.464, 302.488 248.639, 301.250 249.099 M 315.385 248.741 C 313.943 249.723, 312.658 260.166, 313.505 264.022 L 314.159 267 321.617 267 L 329.075 267 328.788 257.750 L 328.500 248.500 322.500 248.241 C 319.200 248.099, 315.998 248.324, 315.385 248.741 M 337.555 249.250 C 336.406 253.009, 336.051 257.906, 336.618 262.179 L 337.258 267 342.129 267 L 347 267 347 257.500 L 347 248 342.469 248 C 339.714 248, 337.787 248.490, 337.555 249.250 M 359.865 248.667 C 357.385 249.327, 356.066 258.912, 357.644 264.803 C 358.165 266.749, 358.820 267.058, 361.880 266.803 L 365.500 266.500 365.793 258.086 C 366.132 248.359, 365.399 247.194, 359.865 248.667 M 398.885 249.663 C 397.711 249.977, 397.122 251.723, 396.729 256.051 C 396.432 259.327, 396.425 262.910, 396.714 264.014 C 397.353 266.459, 401.352 267.613, 404.890 266.373 C 407.313 265.524, 407.521 264.972, 407.798 258.640 C 407.980 254.473, 407.640 251.271, 406.925 250.410 C 405.807 249.062, 402.340 248.741, 398.885 249.663 M 376.402 251.395 C 376.108 252.162, 376.009 254.524, 376.183 256.645 L 376.500 260.500 381 260.500 C 385.212 260.500, 385.521 260.316, 385.828 257.629 C 386.009 256.050, 385.887 253.688, 385.559 252.379 C 385.054 250.368, 384.341 250, 380.950 250 C 378.440 250, 376.737 250.522, 376.402 251.395 M 101.571 261.571 C 99.769 263.374, 99.525 267.244, 101.035 270.066 C 102.082 272.021, 106.977 272.714, 110.418 271.393 C 112.340 270.656, 112.625 263.025, 110.800 261.200 C 109.088 259.488, 103.427 259.716, 101.571 261.571 M 126.200 261.200 C 125.540 261.860, 125 264.120, 125 266.221 C 125 269.315, 125.471 270.257, 127.470 271.168 C 129.359 272.029, 130.301 271.995, 131.470 271.025 C 133.010 269.747, 133.521 264.520, 132.393 261.582 C 131.678 259.718, 127.914 259.486, 126.200 261.200 M 139 265.927 C 139 271.383, 139.208 272, 141.050 272 C 142.913 272, 143.073 271.477, 142.800 266.260 C 142.563 261.732, 142.130 260.449, 140.750 260.186 C 139.239 259.899, 139 260.682, 139 265.927 M 169.667 260.667 C 169.300 261.033, 169 262.803, 169 264.599 C 169 266.904, 169.547 268.039, 170.859 268.455 C 174.313 269.551, 176 268.054, 176 263.893 C 176 260.285, 175.793 260, 173.167 260 C 171.608 260, 170.033 260.300, 169.667 260.667 M 374.750 269.694 L 372 270.133 372 280.066 L 372 290 379.535 290 L 387.070 290 386.785 279.750 L 386.500 269.500 382 269.378 C 379.525 269.310, 376.262 269.453, 374.750 269.694 M 244.625 275.125 C 242.716 284.669, 244.567 289.350, 250.044 288.829 L 253.500 288.500 253.790 280.250 L 254.081 272 249.665 272 C 245.520 272, 245.212 272.191, 244.625 275.125 M 261.540 276.583 C 261.162 279.104, 261.150 282.929, 261.514 285.083 L 262.176 289 269.588 289 L 277 289 277 280.500 L 277 272 269.614 272 L 262.227 272 261.540 276.583 M 285.210 280.250 L 285.500 288.500 288.614 288.803 C 291.657 289.100, 291.744 288.990, 292.403 284.019 C 292.774 281.221, 292.785 277.372, 292.428 275.466 C 291.836 272.312, 291.469 272, 288.348 272 L 284.919 272 285.210 280.250 M 299.607 273.582 C 299.273 274.452, 299 277.565, 299 280.500 C 299 287.607, 299.656 289, 303 289 C 306.344 289, 307 287.607, 307 280.500 C 307 273.393, 306.344 272, 303 272 C 301.382 272, 299.960 272.663, 299.607 273.582 M 313.757 277.250 C 313.470 280.137, 313.458 283.962, 313.731 285.750 L 314.227 289 321.613 289 L 329 289 329 280.500 L 329 272 321.640 272 L 314.280 272 313.757 277.250 M 336.468 276.368 C 336.099 278.827, 336.100 282.631, 336.470 284.822 C 337.064 288.341, 337.526 288.876, 340.437 289.422 C 346.513 290.562, 347.112 289.733, 346.788 280.628 L 346.500 272.500 341.819 272.198 L 337.138 271.896 336.468 276.368 M 357.642 276.750 C 356.020 286.562, 357.015 290, 361.476 290 C 364.469 290, 364.790 289.690, 365.358 286.250 C 366.980 276.438, 365.985 273, 361.524 273 C 358.531 273, 358.210 273.310, 357.642 276.750 M 397.113 273.882 C 395.525 274.918, 394.437 283.619, 395.410 287.497 C 396.022 289.936, 396.392 290.083, 401.214 289.801 C 405.853 289.530, 406.436 289.232, 407.080 286.808 C 407.474 285.328, 407.504 281.728, 407.148 278.808 L 406.500 273.500 402.500 273.239 C 400.300 273.096, 397.876 273.385, 397.113 273.882 M 188 276.289 C 185.930 277.331, 185.447 278.387, 185.189 282.427 C 184.983 285.653, 185.322 287.588, 186.189 288.138 C 187.712 289.104, 197.095 289.285, 199.418 288.393 C 201.594 287.558, 201.602 278.745, 199.429 276.571 C 197.546 274.688, 191.475 274.538, 188 276.289 M 209.406 276.386 C 209.113 277.148, 209.015 279.735, 209.187 282.136 C 209.482 286.249, 209.673 286.500, 212.500 286.500 C 215.323 286.500, 215.518 286.245, 215.811 282.176 C 215.982 279.798, 215.590 277.210, 214.939 276.426 C 213.427 274.605, 210.098 274.581, 209.406 276.386 M 169.435 277.310 C 169.130 278.104, 169.020 280.947, 169.190 283.627 C 169.487 288.300, 169.631 288.513, 172.694 288.809 C 175.665 289.097, 175.936 288.860, 176.583 285.408 C 177.576 280.116, 176.094 276.573, 172.726 276.183 C 171.029 275.987, 169.778 276.415, 169.435 277.310 M 474.389 276.980 C 471.746 278.048, 471.465 278.805, 468.465 292.937 C 465.297 307.860, 465.295 311.386, 468.455 314.545 C 472.698 318.789, 476.830 317.377, 479.475 310.779 C 483.401 300.987, 486.223 282.378, 484.235 279.400 C 483.269 277.953, 479.479 275.983, 477.816 276.063 C 477.092 276.098, 475.550 276.511, 474.389 276.980 M 101.750 280.080 C 99.494 281.394, 99.376 288.233, 101.571 290.429 C 103.427 292.284, 109.088 292.512, 110.800 290.800 C 112.354 289.246, 112.354 281.754, 110.800 280.200 C 109.346 278.746, 104.159 278.677, 101.750 280.080 M 126.245 281.250 C 124.140 283.880, 123.829 287.090, 125.440 289.549 C 127.172 292.193, 129.876 292.724, 131.800 290.800 C 133.071 289.529, 133.411 284.235, 132.393 281.582 C 131.670 279.697, 127.660 279.481, 126.245 281.250 M 139 286 C 139 291.316, 139.237 292.101, 140.750 291.810 C 142.162 291.538, 142.500 290.417, 142.500 286 C 142.500 281.583, 142.162 280.462, 140.750 280.190 C 139.237 279.899, 139 280.684, 139 286 M 208.442 295.291 C 208.142 296.072, 208.033 299.588, 208.199 303.105 L 208.500 309.500 212.216 309.808 C 215.457 310.077, 216.012 309.799, 216.555 307.637 C 216.897 306.273, 216.798 302.759, 216.335 299.828 C 215.532 294.751, 215.339 294.485, 212.239 294.186 C 210.123 293.982, 208.796 294.368, 208.442 295.291 M 169.667 295.667 C 169.300 296.033, 169 304.160, 169 313.727 L 169 331.121 172.750 330.810 L 176.500 330.500 176.775 314.133 C 176.964 302.912, 176.690 297.331, 175.903 296.383 C 174.712 294.948, 170.831 294.502, 169.667 295.667 M 185.415 297.362 C 185.127 298.111, 185.029 301.374, 185.196 304.612 L 185.500 310.500 193 310.500 L 200.500 310.500 200.823 306.544 C 201 304.368, 200.867 301.106, 200.527 299.294 L 199.909 296 192.923 296 C 187.951 296, 185.787 296.393, 185.415 297.362 M 356.571 299.571 C 354.861 301.281, 354.359 311.441, 355.867 313.819 C 356.391 314.646, 358.159 315.019, 360.602 314.819 L 364.500 314.500 364.798 307.660 C 364.980 303.478, 364.641 300.272, 363.925 299.410 C 362.369 297.534, 358.524 297.619, 356.571 299.571 M 396.252 298.706 C 393.533 299.229, 392.778 301.781, 393.191 309.053 L 393.500 314.500 398.500 314.500 L 403.500 314.500 403.801 307.524 C 404.047 301.818, 403.785 300.316, 402.360 299.274 C 400.587 297.978, 400.212 297.943, 396.252 298.706 M 101.571 300.571 C 99.719 302.424, 99.478 309.078, 101.200 310.800 C 101.860 311.460, 104.020 312, 106 312 C 110.687 312, 112 310.541, 112 305.335 C 112 302.142, 111.514 300.810, 110.066 300.035 C 107.244 298.525, 103.374 298.769, 101.571 300.571 M 331.667 299.667 C 331.300 300.033, 331 303.581, 331 307.551 L 331 314.770 336.309 315.433 C 339.287 315.805, 342.798 315.647, 344.309 315.073 C 346.814 314.120, 347 313.638, 347 308.107 C 347 299.172, 346.850 299, 339.060 299 C 335.360 299, 332.033 299.300, 331.667 299.667 M 375.551 299.917 C 374.503 301.613, 373.742 309.835, 374.393 312.429 C 374.988 314.799, 375.466 315, 380.519 315 L 386 315 386 307 L 386 299 381.059 299 C 378.341 299, 375.863 299.413, 375.551 299.917 M 125.976 302.045 C 124.409 304.973, 125.582 310.732, 127.894 311.466 C 131.770 312.696, 133.116 311.093, 132.798 305.625 C 132.523 300.897, 132.292 300.476, 129.817 300.190 C 127.892 299.968, 126.807 300.492, 125.976 302.045 M 138.426 302.440 C 137.385 306.587, 138.809 312.183, 140.807 311.799 C 143.303 311.318, 143.284 300.678, 140.786 300.197 C 139.638 299.976, 138.858 300.717, 138.426 302.440 M 317 302.499 C 315.875 305.459, 315.733 309.401, 316.630 312.750 C 317.107 314.528, 317.952 315, 320.660 315 L 324.088 315 323.794 307.750 C 323.507 300.668, 323.436 300.493, 320.750 300.184 C 318.557 299.931, 317.799 300.399, 317 302.499 M 186.200 318.200 C 185.540 318.860, 185 321.769, 185 324.665 C 185 331.085, 186.803 332.466, 194.252 331.750 C 199.887 331.208, 200.963 330.079, 200.985 324.684 C 201.011 318.228, 199.761 317, 193.165 317 C 189.994 317, 186.860 317.540, 186.200 318.200 M 208.667 317.667 C 208.300 318.033, 208 320.973, 208 324.199 C 208 329.367, 208.267 330.164, 210.250 330.901 C 212.686 331.806, 215.067 331.278, 216.235 329.573 C 217.127 328.270, 217.235 320.775, 216.393 318.582 C 215.783 316.992, 210.023 316.310, 208.667 317.667 M 102.628 321.528 C 102.282 322.427, 102 330.242, 102 338.893 C 102 353.458, 102.155 354.789, 104.086 356.862 C 105.753 358.651, 106.461 358.862, 107.608 357.910 C 108.779 356.939, 108.994 353.369, 108.772 338.609 L 108.500 320.500 105.878 320.196 C 104.169 319.998, 103.037 320.462, 102.628 321.528 M 132 320.978 C 130.750 321.767, 130.448 325.898, 130.186 345.750 C 129.886 368.606, 129.955 369.649, 131.896 371.406 C 133.287 372.665, 134.714 373.038, 136.460 372.599 L 139 371.962 139 347.016 C 139 323.376, 138.899 322.016, 137.066 321.035 C 134.702 319.770, 133.926 319.762, 132 320.978 M 335 321.882 L 331.500 322.500 331.201 329.410 C 330.855 337.396, 331.315 337.962, 338.168 337.985 C 345.762 338.010, 346 337.751, 346 329.500 C 346 320.567, 345.277 320.066, 335 321.882 M 375.200 322.200 C 373.729 323.671, 373.613 333.409, 375.035 336.066 C 375.845 337.579, 377.150 338, 381.035 338 L 386 338 386 329.500 L 386 321 381.200 321 C 378.560 321, 375.860 321.540, 375.200 322.200 M 316 329.440 L 316 337 320.044 337 L 324.088 337 323.794 329.750 L 323.500 322.500 319.750 322.190 L 316 321.879 316 329.440 M 355.667 322.667 C 355.300 323.033, 355 326.373, 355 330.087 C 355 336.749, 355.040 336.850, 357.941 337.487 C 363.068 338.613, 365 336.714, 365 330.547 C 365 322.959, 364.446 322, 360.060 322 C 358.010 322, 356.033 322.300, 355.667 322.667 M 393.656 325.732 C 392.861 330.630, 393.928 337.035, 395.649 337.696 C 396.400 337.984, 398.587 337.925, 400.508 337.565 L 404 336.909 404 329.455 L 404 322 399.131 322 C 394.283 322, 394.259 322.017, 393.656 325.732 M 265.557 328.628 C 265.194 330.074, 265.181 332.549, 265.528 334.128 C 266.073 336.608, 266.626 337, 269.579 337 C 272.892 337, 273 336.876, 273 333.082 C 273 327.443, 272.185 326, 269.001 326 C 266.829 326, 266.072 326.578, 265.557 328.628 M 279.607 327.582 C 278.597 330.214, 278.923 334.513, 280.274 336.360 C 281.316 337.785, 282.818 338.047, 288.524 337.801 L 295.500 337.500 295.800 331.750 L 296.100 326 288.157 326 C 281.836 326, 280.090 326.323, 279.607 327.582 M 457.767 327.750 C 456.919 328.712, 454.778 332.425, 453.010 336 C 451.242 339.575, 446.635 348.015, 442.773 354.755 C 438.910 361.495, 435.750 368.125, 435.750 369.490 C 435.750 372.315, 438.412 376.837, 440.561 377.662 C 444.228 379.069, 447.001 376.862, 453.028 367.741 C 460.259 356.795, 471 335.793, 471 332.600 C 471 327.175, 461.382 323.650, 457.767 327.750 M 303.667 327.667 C 303.300 328.033, 303 330.283, 303 332.667 C 303 336.622, 303.218 337, 305.500 337 C 307.833 337, 308 336.667, 308 332 C 308 327.818, 307.700 327, 306.167 327 C 305.158 327, 304.033 327.300, 303.667 327.667 M 189 337.852 L 185.500 338.500 185.500 345.500 L 185.500 352.500 192.410 352.799 C 197.263 353.010, 199.566 352.712, 200.145 351.799 C 201.169 350.186, 201.233 340.915, 200.232 339.342 C 199.262 337.817, 193.393 337.039, 189 337.852 M 169.206 345.250 L 169.500 352.500 173 352.500 C 176.485 352.500, 176.501 352.479, 176.812 347.566 C 177.313 339.654, 176.557 338, 172.437 338 L 168.912 338 169.206 345.250 M 208.206 345.250 C 208.495 352.372, 208.550 352.506, 211.310 352.822 C 216.488 353.416, 218.092 349.711, 216.375 341.125 C 215.803 338.263, 215.420 338, 211.831 338 L 207.912 338 208.206 345.250 M 280.239 345.161 C 278.964 346.436, 278.527 355.603, 279.607 358.418 C 280.085 359.663, 281.786 360, 287.588 360 C 296.089 360, 296.361 359.667, 295.809 349.947 L 295.500 344.500 288.489 344.211 C 283.895 344.022, 281.051 344.349, 280.239 345.161 M 315.627 345.529 C 314.716 347.904, 314.887 357.274, 315.870 358.824 C 316.375 359.621, 318.063 360.019, 320.105 359.824 L 323.500 359.500 323.500 352 L 323.500 344.500 319.877 344.197 C 317.253 343.978, 316.082 344.345, 315.627 345.529 M 331.417 345.355 C 331.131 346.101, 331.033 349.588, 331.199 353.105 L 331.500 359.500 338.682 359.792 L 345.865 360.085 346.545 355.549 C 346.919 353.054, 346.929 349.435, 346.567 347.507 L 345.909 344 338.923 344 C 333.967 344, 331.786 344.394, 331.417 345.355 M 356.072 345.413 C 355.367 346.262, 355.020 349.351, 355.200 353.163 L 355.500 359.500 359.398 359.819 C 361.841 360.019, 363.609 359.646, 364.133 358.819 C 365.409 356.807, 365.159 346.559, 363.800 345.200 C 362.159 343.559, 357.504 343.687, 356.072 345.413 M 374.975 346.565 C 373.878 349.450, 373.726 354.377, 374.630 357.750 C 375.161 359.730, 375.879 360, 380.617 360 L 386 360 386 352 L 386 344 380.975 344 C 376.502 344, 375.844 344.281, 374.975 346.565 M 394 352 L 394 360.110 398.750 359.805 L 403.500 359.500 403.500 352 L 403.500 344.500 398.750 344.195 L 394 343.890 394 352 M 265.607 346.582 C 264.714 348.908, 264.897 357.289, 265.874 358.830 C 266.353 359.586, 267.966 360.018, 269.609 359.830 C 272.311 359.522, 272.520 359.178, 272.812 354.566 C 273.288 347.055, 272.488 345, 269.088 345 C 267.390 345, 265.966 345.647, 265.607 346.582 M 304.250 345.662 C 303.419 345.998, 303 348.486, 303 353.083 C 303 359.794, 303.074 360, 305.500 360 C 307.944 360, 308 359.833, 308 352.500 C 308 344.988, 307.623 344.301, 304.250 345.662 M 209.571 360.571 C 207.455 362.688, 207.489 370.346, 209.625 372.482 C 210.518 373.375, 212.206 373.970, 213.375 373.803 C 215.251 373.535, 215.535 372.750, 215.802 367.091 C 216.011 362.640, 215.706 360.430, 214.802 359.856 C 212.848 358.617, 211.316 358.826, 209.571 360.571 M 170.200 361.200 C 168.491 362.909, 168.670 371.481, 170.445 372.954 C 171.240 373.614, 172.927 374.006, 174.195 373.827 C 176.226 373.539, 176.536 372.866, 176.805 368.169 C 176.981 365.098, 176.611 362.236, 175.933 361.419 C 174.494 359.685, 171.817 359.583, 170.200 361.200 M 185.923 362.144 C 184.525 364.756, 185.347 371.970, 187.174 373.129 C 189.489 374.597, 197.731 374.126, 199.429 372.429 C 201.214 370.643, 201.511 364.824, 199.965 361.934 C 199.120 360.356, 197.839 360, 193 360 C 187.961 360, 186.898 360.322, 185.923 362.144 M 125 383.901 C 125 385.474, 139.893 397.788, 149.408 404.083 C 172.040 419.057, 198.249 429.107, 229 434.603 C 241.941 436.916, 270.790 436.921, 284.457 434.612 C 321.138 428.415, 352.982 414.359, 378.180 393.241 C 382.405 389.701, 386.104 386.172, 386.400 385.399 C 386.861 384.200, 376.018 384.008, 312.220 384.088 C 271.124 384.140, 212.188 383.905, 181.250 383.567 C 145.966 383.181, 125 383.305, 125 383.901 M 350 442.929 C 344.225 445.625, 334.119 449.685, 327.542 451.949 C 320.965 454.214, 314.777 456.797, 313.792 457.688 C 310.945 460.265, 311.404 466.386, 314.635 468.927 C 316.084 470.067, 318.290 471, 319.538 471 C 326.314 471, 364.377 454.714, 369.444 449.647 C 371.437 447.654, 371.799 446.621, 371.139 444.807 C 370.201 442.228, 364.568 437.993, 362.102 438.013 C 361.221 438.020, 355.775 440.232, 350 442.929" stroke="none" fill="black" fill-rule="evenodd"/>
</svg>